<mxfile host="app.diagrams.net" agent="Mozilla/5.0 (Windows NT 10.0; Win64; x64) AppleWebKit/537.36 (KHTML, like Gecko) Chrome/133.0.0.0 Safari/537.36" version="26.1.0">
  <diagram name="Page-1" id="_UPsp0WZsVldjrWCm-7Y">
    <mxGraphModel dx="1167" dy="632" grid="1" gridSize="10" guides="1" tooltips="1" connect="1" arrows="1" fold="1" page="1" pageScale="1" pageWidth="850" pageHeight="1100" math="0" shadow="0">
      <root>
        <mxCell id="0" />
        <mxCell id="1" parent="0" />
        <mxCell id="HPoWdVaBkYPctPKmIMIS-3" value="" style="edgeStyle=orthogonalEdgeStyle;rounded=0;orthogonalLoop=1;jettySize=auto;html=1;" edge="1" parent="1" source="HPoWdVaBkYPctPKmIMIS-1" target="HPoWdVaBkYPctPKmIMIS-2">
          <mxGeometry relative="1" as="geometry" />
        </mxCell>
        <mxCell id="HPoWdVaBkYPctPKmIMIS-1" value="Inicio" style="ellipse;whiteSpace=wrap;html=1;" vertex="1" parent="1">
          <mxGeometry x="340" y="20" width="120" height="80" as="geometry" />
        </mxCell>
        <mxCell id="HPoWdVaBkYPctPKmIMIS-6" value="" style="edgeStyle=orthogonalEdgeStyle;rounded=0;orthogonalLoop=1;jettySize=auto;html=1;" edge="1" parent="1" source="HPoWdVaBkYPctPKmIMIS-2" target="HPoWdVaBkYPctPKmIMIS-5">
          <mxGeometry relative="1" as="geometry" />
        </mxCell>
        <mxCell id="HPoWdVaBkYPctPKmIMIS-2" value="Solicitar el ingresar la tarjeta correctamente" style="rounded=0;whiteSpace=wrap;html=1;" vertex="1" parent="1">
          <mxGeometry x="340" y="130" width="120" height="60" as="geometry" />
        </mxCell>
        <mxCell id="HPoWdVaBkYPctPKmIMIS-9" style="edgeStyle=orthogonalEdgeStyle;rounded=0;orthogonalLoop=1;jettySize=auto;html=1;entryX=0.5;entryY=0;entryDx=0;entryDy=0;" edge="1" parent="1" source="HPoWdVaBkYPctPKmIMIS-5" target="HPoWdVaBkYPctPKmIMIS-7">
          <mxGeometry relative="1" as="geometry" />
        </mxCell>
        <mxCell id="HPoWdVaBkYPctPKmIMIS-10" style="edgeStyle=orthogonalEdgeStyle;rounded=0;orthogonalLoop=1;jettySize=auto;html=1;entryX=0.5;entryY=0;entryDx=0;entryDy=0;" edge="1" parent="1" source="HPoWdVaBkYPctPKmIMIS-5" target="HPoWdVaBkYPctPKmIMIS-8">
          <mxGeometry relative="1" as="geometry" />
        </mxCell>
        <mxCell id="HPoWdVaBkYPctPKmIMIS-5" value="Se ingreso correctamente?" style="rhombus;whiteSpace=wrap;html=1;" vertex="1" parent="1">
          <mxGeometry x="305" y="210" width="190" height="80" as="geometry" />
        </mxCell>
        <mxCell id="HPoWdVaBkYPctPKmIMIS-18" style="edgeStyle=orthogonalEdgeStyle;rounded=0;orthogonalLoop=1;jettySize=auto;html=1;entryX=0.5;entryY=0;entryDx=0;entryDy=0;" edge="1" parent="1" source="HPoWdVaBkYPctPKmIMIS-7" target="HPoWdVaBkYPctPKmIMIS-17">
          <mxGeometry relative="1" as="geometry" />
        </mxCell>
        <mxCell id="HPoWdVaBkYPctPKmIMIS-7" value="Retener la tarjeta y solicitar el pin" style="rounded=0;whiteSpace=wrap;html=1;" vertex="1" parent="1">
          <mxGeometry x="120" y="310" width="120" height="60" as="geometry" />
        </mxCell>
        <mxCell id="HPoWdVaBkYPctPKmIMIS-8" value="Solicitar que se ingrese correctamente" style="rounded=0;whiteSpace=wrap;html=1;" vertex="1" parent="1">
          <mxGeometry x="560" y="280" width="120" height="60" as="geometry" />
        </mxCell>
        <mxCell id="HPoWdVaBkYPctPKmIMIS-11" value="Si" style="text;html=1;align=center;verticalAlign=middle;resizable=0;points=[];autosize=1;strokeColor=none;fillColor=none;" vertex="1" parent="1">
          <mxGeometry x="225" y="228" width="30" height="30" as="geometry" />
        </mxCell>
        <mxCell id="HPoWdVaBkYPctPKmIMIS-12" value="No" style="text;html=1;align=center;verticalAlign=middle;resizable=0;points=[];autosize=1;strokeColor=none;fillColor=none;" vertex="1" parent="1">
          <mxGeometry x="520" y="228" width="40" height="30" as="geometry" />
        </mxCell>
        <mxCell id="HPoWdVaBkYPctPKmIMIS-14" value="" style="endArrow=classic;html=1;rounded=0;entryX=1;entryY=0.5;entryDx=0;entryDy=0;" edge="1" parent="1" target="HPoWdVaBkYPctPKmIMIS-2">
          <mxGeometry width="50" height="50" relative="1" as="geometry">
            <mxPoint x="720" y="160" as="sourcePoint" />
            <mxPoint x="470" y="300" as="targetPoint" />
          </mxGeometry>
        </mxCell>
        <mxCell id="HPoWdVaBkYPctPKmIMIS-15" value="" style="endArrow=none;html=1;rounded=0;" edge="1" parent="1">
          <mxGeometry width="50" height="50" relative="1" as="geometry">
            <mxPoint x="720" y="310" as="sourcePoint" />
            <mxPoint x="720" y="160" as="targetPoint" />
          </mxGeometry>
        </mxCell>
        <mxCell id="HPoWdVaBkYPctPKmIMIS-16" value="" style="endArrow=none;html=1;rounded=0;exitX=1;exitY=0.5;exitDx=0;exitDy=0;" edge="1" parent="1" source="HPoWdVaBkYPctPKmIMIS-8">
          <mxGeometry width="50" height="50" relative="1" as="geometry">
            <mxPoint x="420" y="350" as="sourcePoint" />
            <mxPoint x="720" y="310" as="targetPoint" />
          </mxGeometry>
        </mxCell>
        <mxCell id="HPoWdVaBkYPctPKmIMIS-17" value="Es el pin correcto?" style="rhombus;whiteSpace=wrap;html=1;" vertex="1" parent="1">
          <mxGeometry x="272.5" y="400" width="255" height="130" as="geometry" />
        </mxCell>
        <mxCell id="HPoWdVaBkYPctPKmIMIS-20" style="edgeStyle=orthogonalEdgeStyle;rounded=0;orthogonalLoop=1;jettySize=auto;html=1;entryX=0.5;entryY=0;entryDx=0;entryDy=0;exitX=1;exitY=0.5;exitDx=0;exitDy=0;" edge="1" parent="1" target="HPoWdVaBkYPctPKmIMIS-22" source="HPoWdVaBkYPctPKmIMIS-17">
          <mxGeometry relative="1" as="geometry">
            <mxPoint x="495" y="462" as="sourcePoint" />
            <Array as="points">
              <mxPoint x="620" y="465" />
            </Array>
          </mxGeometry>
        </mxCell>
        <mxCell id="HPoWdVaBkYPctPKmIMIS-22" value="Solicitar que se ingrese correctamente" style="rounded=0;whiteSpace=wrap;html=1;" vertex="1" parent="1">
          <mxGeometry x="560" y="522" width="120" height="60" as="geometry" />
        </mxCell>
        <mxCell id="HPoWdVaBkYPctPKmIMIS-23" value="Si" style="text;html=1;align=center;verticalAlign=middle;resizable=0;points=[];autosize=1;strokeColor=none;fillColor=none;" vertex="1" parent="1">
          <mxGeometry x="225" y="430" width="30" height="30" as="geometry" />
        </mxCell>
        <mxCell id="HPoWdVaBkYPctPKmIMIS-24" value="No" style="text;html=1;align=center;verticalAlign=middle;resizable=0;points=[];autosize=1;strokeColor=none;fillColor=none;" vertex="1" parent="1">
          <mxGeometry x="560" y="430" width="40" height="30" as="geometry" />
        </mxCell>
        <mxCell id="HPoWdVaBkYPctPKmIMIS-25" value="" style="endArrow=classic;html=1;rounded=0;entryX=1.017;entryY=0.153;entryDx=0;entryDy=0;entryPerimeter=0;" edge="1" parent="1" target="HPoWdVaBkYPctPKmIMIS-7">
          <mxGeometry width="50" height="50" relative="1" as="geometry">
            <mxPoint x="520" y="320" as="sourcePoint" />
            <mxPoint x="470" y="370" as="targetPoint" />
          </mxGeometry>
        </mxCell>
        <mxCell id="HPoWdVaBkYPctPKmIMIS-26" value="" style="endArrow=none;html=1;rounded=0;" edge="1" parent="1">
          <mxGeometry width="50" height="50" relative="1" as="geometry">
            <mxPoint x="520" y="390" as="sourcePoint" />
            <mxPoint x="520" y="320" as="targetPoint" />
          </mxGeometry>
        </mxCell>
        <mxCell id="HPoWdVaBkYPctPKmIMIS-27" value="" style="endArrow=none;html=1;rounded=0;" edge="1" parent="1">
          <mxGeometry width="50" height="50" relative="1" as="geometry">
            <mxPoint x="720" y="390" as="sourcePoint" />
            <mxPoint x="520" y="390" as="targetPoint" />
          </mxGeometry>
        </mxCell>
        <mxCell id="HPoWdVaBkYPctPKmIMIS-28" value="" style="endArrow=none;html=1;rounded=0;" edge="1" parent="1">
          <mxGeometry width="50" height="50" relative="1" as="geometry">
            <mxPoint x="720" y="540" as="sourcePoint" />
            <mxPoint x="720" y="390" as="targetPoint" />
          </mxGeometry>
        </mxCell>
        <mxCell id="HPoWdVaBkYPctPKmIMIS-29" value="" style="endArrow=none;html=1;rounded=0;exitX=1;exitY=0.5;exitDx=0;exitDy=0;" edge="1" parent="1" source="HPoWdVaBkYPctPKmIMIS-22">
          <mxGeometry width="50" height="50" relative="1" as="geometry">
            <mxPoint x="420" y="420" as="sourcePoint" />
            <mxPoint x="720" y="540" as="targetPoint" />
          </mxGeometry>
        </mxCell>
        <mxCell id="HPoWdVaBkYPctPKmIMIS-33" value="" style="edgeStyle=orthogonalEdgeStyle;rounded=0;orthogonalLoop=1;jettySize=auto;html=1;" edge="1" parent="1" source="HPoWdVaBkYPctPKmIMIS-30" target="HPoWdVaBkYPctPKmIMIS-32">
          <mxGeometry relative="1" as="geometry" />
        </mxCell>
        <mxCell id="HPoWdVaBkYPctPKmIMIS-30" value="Solicitar el monto a retirar" style="rounded=0;whiteSpace=wrap;html=1;" vertex="1" parent="1">
          <mxGeometry x="340" y="600" width="120" height="60" as="geometry" />
        </mxCell>
        <mxCell id="HPoWdVaBkYPctPKmIMIS-35" value="" style="edgeStyle=orthogonalEdgeStyle;rounded=0;orthogonalLoop=1;jettySize=auto;html=1;" edge="1" parent="1" source="HPoWdVaBkYPctPKmIMIS-32" target="HPoWdVaBkYPctPKmIMIS-34">
          <mxGeometry relative="1" as="geometry" />
        </mxCell>
        <mxCell id="HPoWdVaBkYPctPKmIMIS-32" value="Comprobar la cantidad de centenas en el monto solicitado" style="rounded=0;whiteSpace=wrap;html=1;" vertex="1" parent="1">
          <mxGeometry x="280" y="710" width="240" height="90" as="geometry" />
        </mxCell>
        <mxCell id="HPoWdVaBkYPctPKmIMIS-37" value="" style="edgeStyle=orthogonalEdgeStyle;rounded=0;orthogonalLoop=1;jettySize=auto;html=1;" edge="1" parent="1" source="HPoWdVaBkYPctPKmIMIS-34" target="HPoWdVaBkYPctPKmIMIS-36">
          <mxGeometry relative="1" as="geometry" />
        </mxCell>
        <mxCell id="HPoWdVaBkYPctPKmIMIS-34" value="Comprobar la cantidad de decenas en el monto solicitado" style="rounded=0;whiteSpace=wrap;html=1;" vertex="1" parent="1">
          <mxGeometry x="280" y="830" width="240" height="90" as="geometry" />
        </mxCell>
        <mxCell id="HPoWdVaBkYPctPKmIMIS-39" value="" style="edgeStyle=orthogonalEdgeStyle;rounded=0;orthogonalLoop=1;jettySize=auto;html=1;" edge="1" parent="1" source="HPoWdVaBkYPctPKmIMIS-36" target="HPoWdVaBkYPctPKmIMIS-38">
          <mxGeometry relative="1" as="geometry" />
        </mxCell>
        <mxCell id="HPoWdVaBkYPctPKmIMIS-36" value="Comprobar la cantidad de unidades en el monto solicitado" style="rounded=0;whiteSpace=wrap;html=1;" vertex="1" parent="1">
          <mxGeometry x="280" y="950" width="240" height="90" as="geometry" />
        </mxCell>
        <mxCell id="HPoWdVaBkYPctPKmIMIS-41" value="" style="edgeStyle=orthogonalEdgeStyle;rounded=0;orthogonalLoop=1;jettySize=auto;html=1;" edge="1" parent="1" source="HPoWdVaBkYPctPKmIMIS-38" target="HPoWdVaBkYPctPKmIMIS-40">
          <mxGeometry relative="1" as="geometry" />
        </mxCell>
        <mxCell id="HPoWdVaBkYPctPKmIMIS-38" value="Entregar primero un billete de cien por cada centena en el monto solicitado" style="rounded=0;whiteSpace=wrap;html=1;" vertex="1" parent="1">
          <mxGeometry x="280" y="1090" width="240" height="90" as="geometry" />
        </mxCell>
        <mxCell id="HPoWdVaBkYPctPKmIMIS-44" value="" style="edgeStyle=orthogonalEdgeStyle;rounded=0;orthogonalLoop=1;jettySize=auto;html=1;" edge="1" parent="1" source="HPoWdVaBkYPctPKmIMIS-40" target="HPoWdVaBkYPctPKmIMIS-42">
          <mxGeometry relative="1" as="geometry" />
        </mxCell>
        <mxCell id="HPoWdVaBkYPctPKmIMIS-40" value="Entregar segundo un billete de diez por cada decena en el monto solicitado" style="rounded=0;whiteSpace=wrap;html=1;" vertex="1" parent="1">
          <mxGeometry x="280" y="1210" width="240" height="90" as="geometry" />
        </mxCell>
        <mxCell id="HPoWdVaBkYPctPKmIMIS-48" value="" style="edgeStyle=orthogonalEdgeStyle;rounded=0;orthogonalLoop=1;jettySize=auto;html=1;" edge="1" parent="1" source="HPoWdVaBkYPctPKmIMIS-42" target="HPoWdVaBkYPctPKmIMIS-47">
          <mxGeometry relative="1" as="geometry" />
        </mxCell>
        <mxCell id="HPoWdVaBkYPctPKmIMIS-42" value="Entregar segundo un billete de uno por cada unidad en el monto solicitado" style="rounded=0;whiteSpace=wrap;html=1;" vertex="1" parent="1">
          <mxGeometry x="280" y="1320" width="240" height="90" as="geometry" />
        </mxCell>
        <mxCell id="HPoWdVaBkYPctPKmIMIS-45" value="Preguntar si desea realizar otro retiro" style="rhombus;whiteSpace=wrap;html=1;" vertex="1" parent="1">
          <mxGeometry x="230" y="1710" width="340" height="220" as="geometry" />
        </mxCell>
        <mxCell id="HPoWdVaBkYPctPKmIMIS-51" value="" style="edgeStyle=orthogonalEdgeStyle;rounded=0;orthogonalLoop=1;jettySize=auto;html=1;" edge="1" parent="1" source="HPoWdVaBkYPctPKmIMIS-47" target="HPoWdVaBkYPctPKmIMIS-50">
          <mxGeometry relative="1" as="geometry" />
        </mxCell>
        <mxCell id="HPoWdVaBkYPctPKmIMIS-47" value="Solicitar que se retire el efectivo" style="rounded=0;whiteSpace=wrap;html=1;" vertex="1" parent="1">
          <mxGeometry x="290" y="1440" width="220" height="70" as="geometry" />
        </mxCell>
        <mxCell id="HPoWdVaBkYPctPKmIMIS-50" value="Se retiro el efectivo" style="rhombus;whiteSpace=wrap;html=1;" vertex="1" parent="1">
          <mxGeometry x="360" y="1540" width="80" height="80" as="geometry" />
        </mxCell>
        <mxCell id="HPoWdVaBkYPctPKmIMIS-54" value="" style="endArrow=classic;html=1;rounded=0;entryX=1;entryY=0.5;entryDx=0;entryDy=0;" edge="1" parent="1" target="HPoWdVaBkYPctPKmIMIS-47">
          <mxGeometry width="50" height="50" relative="1" as="geometry">
            <mxPoint x="600" y="1490" as="sourcePoint" />
            <mxPoint x="350" y="1550" as="targetPoint" />
          </mxGeometry>
        </mxCell>
        <mxCell id="HPoWdVaBkYPctPKmIMIS-55" value="" style="endArrow=none;html=1;rounded=0;" edge="1" parent="1">
          <mxGeometry width="50" height="50" relative="1" as="geometry">
            <mxPoint x="600" y="1580" as="sourcePoint" />
            <mxPoint x="600" y="1490" as="targetPoint" />
          </mxGeometry>
        </mxCell>
        <mxCell id="HPoWdVaBkYPctPKmIMIS-56" value="" style="endArrow=none;html=1;rounded=0;exitX=1;exitY=0.5;exitDx=0;exitDy=0;" edge="1" parent="1" source="HPoWdVaBkYPctPKmIMIS-50">
          <mxGeometry width="50" height="50" relative="1" as="geometry">
            <mxPoint x="430" y="1570" as="sourcePoint" />
            <mxPoint x="600" y="1580" as="targetPoint" />
          </mxGeometry>
        </mxCell>
        <mxCell id="HPoWdVaBkYPctPKmIMIS-57" value="No" style="text;html=1;align=center;verticalAlign=middle;resizable=0;points=[];autosize=1;strokeColor=none;fillColor=none;" vertex="1" parent="1">
          <mxGeometry x="490" y="1558" width="40" height="30" as="geometry" />
        </mxCell>
        <mxCell id="HPoWdVaBkYPctPKmIMIS-59" value="" style="endArrow=classic;html=1;rounded=0;entryX=0.5;entryY=0;entryDx=0;entryDy=0;" edge="1" parent="1" target="HPoWdVaBkYPctPKmIMIS-45">
          <mxGeometry width="50" height="50" relative="1" as="geometry">
            <mxPoint x="400" y="1680" as="sourcePoint" />
            <mxPoint x="460" y="1650" as="targetPoint" />
          </mxGeometry>
        </mxCell>
        <mxCell id="HPoWdVaBkYPctPKmIMIS-60" value="" style="endArrow=none;html=1;rounded=0;" edge="1" parent="1">
          <mxGeometry width="50" height="50" relative="1" as="geometry">
            <mxPoint x="400" y="1680" as="sourcePoint" />
            <mxPoint x="280" y="1680" as="targetPoint" />
          </mxGeometry>
        </mxCell>
        <mxCell id="HPoWdVaBkYPctPKmIMIS-63" value="" style="endArrow=none;html=1;rounded=0;" edge="1" parent="1">
          <mxGeometry width="50" height="50" relative="1" as="geometry">
            <mxPoint x="280" y="1680" as="sourcePoint" />
            <mxPoint x="280" y="1580" as="targetPoint" />
          </mxGeometry>
        </mxCell>
        <mxCell id="HPoWdVaBkYPctPKmIMIS-64" value="" style="endArrow=none;html=1;rounded=0;exitX=0;exitY=0.5;exitDx=0;exitDy=0;" edge="1" parent="1" source="HPoWdVaBkYPctPKmIMIS-50">
          <mxGeometry width="50" height="50" relative="1" as="geometry">
            <mxPoint x="410" y="1700" as="sourcePoint" />
            <mxPoint x="280" y="1580" as="targetPoint" />
          </mxGeometry>
        </mxCell>
        <mxCell id="HPoWdVaBkYPctPKmIMIS-65" value="Si" style="text;html=1;align=center;verticalAlign=middle;resizable=0;points=[];autosize=1;strokeColor=none;fillColor=none;" vertex="1" parent="1">
          <mxGeometry x="295" y="1558" width="30" height="30" as="geometry" />
        </mxCell>
        <mxCell id="HPoWdVaBkYPctPKmIMIS-66" value="" style="endArrow=none;html=1;rounded=0;entryX=0;entryY=0.5;entryDx=0;entryDy=0;" edge="1" parent="1" target="HPoWdVaBkYPctPKmIMIS-45">
          <mxGeometry width="50" height="50" relative="1" as="geometry">
            <mxPoint x="80" y="1820" as="sourcePoint" />
            <mxPoint x="460" y="1890" as="targetPoint" />
          </mxGeometry>
        </mxCell>
        <mxCell id="HPoWdVaBkYPctPKmIMIS-67" value="" style="endArrow=none;html=1;rounded=0;" edge="1" parent="1">
          <mxGeometry width="50" height="50" relative="1" as="geometry">
            <mxPoint x="80" y="1820" as="sourcePoint" />
            <mxPoint x="80" y="340" as="targetPoint" />
          </mxGeometry>
        </mxCell>
        <mxCell id="HPoWdVaBkYPctPKmIMIS-68" value="" style="endArrow=none;html=1;rounded=0;exitX=0;exitY=0.5;exitDx=0;exitDy=0;" edge="1" parent="1" source="HPoWdVaBkYPctPKmIMIS-7">
          <mxGeometry width="50" height="50" relative="1" as="geometry">
            <mxPoint x="460" y="470" as="sourcePoint" />
            <mxPoint x="80" y="340" as="targetPoint" />
          </mxGeometry>
        </mxCell>
        <mxCell id="HPoWdVaBkYPctPKmIMIS-69" value="SI" style="text;html=1;align=center;verticalAlign=middle;resizable=0;points=[];autosize=1;strokeColor=none;fillColor=none;" vertex="1" parent="1">
          <mxGeometry x="125" y="1798" width="30" height="30" as="geometry" />
        </mxCell>
        <mxCell id="HPoWdVaBkYPctPKmIMIS-82" value="" style="edgeStyle=orthogonalEdgeStyle;rounded=0;orthogonalLoop=1;jettySize=auto;html=1;" edge="1" parent="1" source="HPoWdVaBkYPctPKmIMIS-70" target="HPoWdVaBkYPctPKmIMIS-81">
          <mxGeometry relative="1" as="geometry" />
        </mxCell>
        <mxCell id="HPoWdVaBkYPctPKmIMIS-70" value="Liberar y solicitar que se retire la tarjeta" style="rounded=0;whiteSpace=wrap;html=1;" vertex="1" parent="1">
          <mxGeometry x="340" y="1990" width="120" height="60" as="geometry" />
        </mxCell>
        <mxCell id="HPoWdVaBkYPctPKmIMIS-72" value="" style="endArrow=classic;html=1;rounded=0;entryX=0.5;entryY=0;entryDx=0;entryDy=0;" edge="1" parent="1" target="HPoWdVaBkYPctPKmIMIS-30">
          <mxGeometry width="50" height="50" relative="1" as="geometry">
            <mxPoint x="400" y="560" as="sourcePoint" />
            <mxPoint x="510" y="420" as="targetPoint" />
          </mxGeometry>
        </mxCell>
        <mxCell id="HPoWdVaBkYPctPKmIMIS-73" value="" style="endArrow=none;html=1;rounded=0;" edge="1" parent="1">
          <mxGeometry width="50" height="50" relative="1" as="geometry">
            <mxPoint x="200" y="560" as="sourcePoint" />
            <mxPoint x="400" y="560" as="targetPoint" />
          </mxGeometry>
        </mxCell>
        <mxCell id="HPoWdVaBkYPctPKmIMIS-74" value="" style="endArrow=none;html=1;rounded=0;" edge="1" parent="1">
          <mxGeometry width="50" height="50" relative="1" as="geometry">
            <mxPoint x="200" y="480" as="sourcePoint" />
            <mxPoint x="200" y="560" as="targetPoint" />
          </mxGeometry>
        </mxCell>
        <mxCell id="HPoWdVaBkYPctPKmIMIS-75" value="" style="endArrow=none;html=1;rounded=0;exitX=0;exitY=0.5;exitDx=0;exitDy=0;" edge="1" parent="1" source="HPoWdVaBkYPctPKmIMIS-17">
          <mxGeometry width="50" height="50" relative="1" as="geometry">
            <mxPoint x="460" y="470" as="sourcePoint" />
            <mxPoint x="200" y="480" as="targetPoint" />
          </mxGeometry>
        </mxCell>
        <mxCell id="HPoWdVaBkYPctPKmIMIS-76" value="" style="endArrow=classic;html=1;rounded=0;entryX=0.5;entryY=0;entryDx=0;entryDy=0;" edge="1" parent="1" target="HPoWdVaBkYPctPKmIMIS-70">
          <mxGeometry width="50" height="50" relative="1" as="geometry">
            <mxPoint x="400" y="1960" as="sourcePoint" />
            <mxPoint x="510" y="1870" as="targetPoint" />
          </mxGeometry>
        </mxCell>
        <mxCell id="HPoWdVaBkYPctPKmIMIS-77" value="" style="endArrow=none;html=1;rounded=0;" edge="1" parent="1">
          <mxGeometry width="50" height="50" relative="1" as="geometry">
            <mxPoint x="400" y="1960" as="sourcePoint" />
            <mxPoint x="680" y="1960" as="targetPoint" />
          </mxGeometry>
        </mxCell>
        <mxCell id="HPoWdVaBkYPctPKmIMIS-78" value="" style="endArrow=none;html=1;rounded=0;entryX=1;entryY=0.5;entryDx=0;entryDy=0;" edge="1" parent="1" target="HPoWdVaBkYPctPKmIMIS-45">
          <mxGeometry width="50" height="50" relative="1" as="geometry">
            <mxPoint x="680" y="1820" as="sourcePoint" />
            <mxPoint x="510" y="1870" as="targetPoint" />
          </mxGeometry>
        </mxCell>
        <mxCell id="HPoWdVaBkYPctPKmIMIS-79" value="" style="endArrow=none;html=1;rounded=0;" edge="1" parent="1">
          <mxGeometry width="50" height="50" relative="1" as="geometry">
            <mxPoint x="680" y="1960" as="sourcePoint" />
            <mxPoint x="680" y="1820" as="targetPoint" />
          </mxGeometry>
        </mxCell>
        <mxCell id="HPoWdVaBkYPctPKmIMIS-80" value="NO" style="text;html=1;align=center;verticalAlign=middle;resizable=0;points=[];autosize=1;strokeColor=none;fillColor=none;" vertex="1" parent="1">
          <mxGeometry x="600" y="1788" width="40" height="30" as="geometry" />
        </mxCell>
        <mxCell id="HPoWdVaBkYPctPKmIMIS-81" value="FIN" style="ellipse;whiteSpace=wrap;html=1;aspect=fixed;" vertex="1" parent="1">
          <mxGeometry x="360" y="2110" width="80" height="80" as="geometry" />
        </mxCell>
      </root>
    </mxGraphModel>
  </diagram>
</mxfile>
